<svg id="Capa_1" data-name="Capa 1" xmlns="http://www.w3.org/2000/svg" viewBox="0 0 397.47 439.94"><defs><style>.cls-1{fill:#01a366;}.cls-2{fill:#01ff66;}</style></defs><path class="cls-1" d="M192.21,20.7s-41.07-17-52.09,10.54L2.46,375.38c-1.11,3.34-5.84,18.69,1.83,33.69A45,45,0,0,0,17.6,424.4a49.76,49.76,0,0,0,11.7,6.06c51.09,18.1,117,4.72,117,4.72a304.53,304.53,0,0,0,45-12.7c49.54-18.62,85.83-48.26,83.27-53.1-3-5.73-68.22,39.75-126.51,16.73-9.75-3.86-18.86-7.46-25.71-16.73-25.55-34.6,10.68-107.06,24-133.67h0c.09-.16,59.13-113.07,77.73-170.93C224,64.67,224.05,64.55,192.21,20.7Z"/><path class="cls-2" d="M161.31,9A65.91,65.91,0,0,1,185.57.6c5.36-.64,14.91-1.67,26.19,2.5a56.3,56.3,0,0,1,21.47,14.84C243.05,28.85,249,44.16,249,44.16h0s.05.12,141.84,323.13c1.56,3,12.76,25.78,2.18,47.7a44.14,44.14,0,0,1-14.74,17.12c-15.66,10.59-38,10-52-.79h0a40.26,40.26,0,0,1-4.14-3.33,67.12,67.12,0,0,1-15.81-23.6C298.55,384.55,236,184.12,186.83,132.28c-11.61-12.24-30-22.18-43.41-23a46.41,46.41,0,0,0-14.78,1.7c-2.76.86-8.59,3-15.84,9.33C100.6,131,96.71,142.6,95.74,142.18c-1.39-.59,8.72-24.59,18.13-51.85,10.94-31.72,14.25-48.5,28.56-65.37A70.8,70.8,0,0,1,161.31,9Z"/></svg>